<svg version="1.1" id="Layer_1" xmlns="http://www.w3.org/2000/svg" xmlns:xlink="http://www.w3.org/1999/xlink" x="0px" y="0px"
	 width="100%" viewBox="0 0 1024 1024" enable-background="new 0 0 1024 1024" xml:space="preserve">
<path fill="#FEFEFE" opacity="1.000000" stroke="none" 
	d="
M1.000000,378.000000 
	C1.000000,252.000015 1.000000,126.500031 1.000000,1.000034 
	C342.333282,1.000022 683.666565,1.000022 1025.000000,1.000011 
	C1025.000000,342.333252 1025.000000,683.666504 1025.000000,1024.999756 
	C683.666809,1024.999878 342.333618,1024.999878 1.000206,1025.000000 
	C1.000000,809.500000 1.000000,594.000000 1.000000,378.000000 
M672.885620,988.112427 
	C674.646362,988.037598 676.407104,987.962830 679.074097,988.035278 
	C689.327209,987.965637 699.580383,987.895996 710.782349,987.969177 
	C790.564636,987.991333 870.346863,988.013428 950.129150,988.034973 
	C950.628784,988.035095 951.131470,988.059448 951.627625,988.015442 
	C955.614319,987.662354 958.102539,985.488708 958.862732,981.607056 
	C959.434692,978.686646 959.740234,975.706848 960.035217,972.740662 
	C961.117249,961.858154 962.137085,950.969543 963.195923,940.084656 
	C964.799744,923.597107 966.474304,907.116272 968.004883,890.621948 
	C968.847229,881.543640 969.376343,872.436462 970.188293,863.354980 
	C971.737488,846.029663 973.508118,828.723450 974.959351,811.390259 
	C976.176880,796.849548 977.154541,782.287109 978.088928,767.724670 
	C979.469666,746.205750 980.759033,724.680725 982.000488,703.153259 
	C982.440247,695.527954 983.003174,687.880737 982.858582,680.255859 
	C982.370178,654.502747 981.813721,628.745972 980.750183,603.012573 
	C980.508606,597.168518 978.474060,591.298523 976.635193,585.645203 
	C974.174072,578.078552 968.698853,573.230835 960.764282,572.270020 
	C955.527649,571.635986 950.138123,572.264404 943.921021,572.213440 
	C897.824951,572.194153 851.728882,572.182922 805.632812,572.146545 
	C799.146057,572.141418 792.659485,572.013794 786.081116,571.117371 
	C781.566345,549.534119 780.099548,527.856812 785.798279,506.315887 
	C789.947632,490.631622 792.315857,474.826599 793.419983,458.627258 
	C795.442322,428.957611 788.084412,401.800873 773.098267,376.597107 
	C763.074402,359.739014 748.565979,348.775665 728.502014,346.185120 
	C725.829895,345.840088 723.009155,344.811188 720.756287,343.336517 
	C696.286316,327.318848 669.796021,321.536682 641.170959,328.169312 
	C615.743713,334.061005 594.488586,346.886292 580.105469,369.175629 
	C563.043335,395.616669 555.970703,425.400879 554.193298,456.310822 
	C552.688782,482.473694 551.527649,508.527771 542.389832,533.444641 
	C541.368896,536.228577 542.156616,537.997498 544.842957,538.906677 
	C555.195801,542.410522 565.567566,545.858459 575.873291,549.965393 
	C569.841919,557.008911 563.810547,564.052490 556.873108,571.008240 
	C543.741943,570.996521 530.599426,570.639954 517.482971,571.073242 
	C505.202728,571.478943 493.558777,574.509827 483.004761,581.328613 
	C463.116821,594.177917 454.069183,613.643188 449.168701,635.726807 
	C442.872803,664.098694 441.531342,693.005066 439.893219,721.885071 
	C439.234467,733.499146 438.196411,745.091370 437.363892,756.695923 
	C436.234192,772.442688 435.136047,788.191650 433.844482,804.626709 
	C430.852783,812.959045 426.881653,821.095703 425.165955,829.682983 
	C423.678497,837.128113 424.746857,845.083923 424.190399,853.263733 
	C416.060272,868.796204 402.570465,877.949646 386.200012,881.709717 
	C366.836212,886.157227 347.024323,888.659546 327.399536,891.962708 
	C314.958405,894.056763 302.404083,895.608093 290.084900,898.259338 
	C278.356537,900.783386 273.241211,907.441956 273.111908,919.064453 
	C272.885803,939.384827 272.895996,959.708496 272.923737,980.030640 
	C272.932190,986.238708 274.810669,988.056091 281.053589,988.062561 
	C303.040771,988.085388 325.028015,988.006470 347.946289,988.059509 
	C363.992157,987.999573 380.037994,987.939697 397.002106,988.017456 
	C448.814087,988.041382 500.626068,988.087158 552.438049,988.080261 
	C579.590271,988.076660 606.742493,987.980530 634.828857,988.011047 
	C638.238708,987.985168 641.648499,987.959290 645.907471,988.068604 
	C647.903748,988.016296 649.900024,987.963989 652.841980,987.994202 
	C658.270203,987.939941 663.698425,987.885681 669.843079,987.930786 
	C670.567688,987.955505 671.292358,987.980225 672.885620,988.112427 
M277.687683,37.055779 
	C272.096405,37.690956 266.497009,38.262352 260.915283,38.972561 
	C238.914780,41.771862 221.801346,53.058556 208.163422,69.973763 
	C205.319382,73.501236 202.757065,74.508858 198.395721,73.370140 
	C186.175171,70.179428 173.799744,69.890488 161.431122,72.738579 
	C143.470276,76.874367 128.729767,86.354942 116.526321,99.975311 
	C100.045280,118.369965 91.652000,139.725937 97.515594,164.157776 
	C99.865242,173.948029 97.422043,179.045990 90.702728,184.992599 
	C78.675247,195.636887 70.484680,209.013794 68.638824,225.180725 
	C67.483063,235.303391 67.262444,245.717377 68.206078,255.853195 
	C69.730011,272.222351 75.796745,287.074432 87.001648,299.467072 
	C97.716225,311.317444 111.536377,318.622345 125.490616,325.770050 
	C127.025810,326.556427 128.786148,328.645966 128.879349,330.223419 
	C129.509125,340.882477 132.224106,350.805817 137.954041,359.866882 
	C151.679321,381.571381 170.788589,396.039856 195.469193,403.351074 
	C208.621201,407.247101 222.021042,407.081665 235.480179,407.062012 
	C246.786118,407.045471 257.484650,404.523773 267.889282,400.196045 
	C269.653320,399.462311 272.468048,399.682495 274.170074,400.611420 
	C294.438568,411.673187 316.010498,415.724945 338.696014,411.855530 
	C355.700531,408.955078 371.516357,402.971222 382.109802,388.118011 
	C383.954865,385.530975 385.846497,384.820343 388.731201,384.941864 
	C397.394287,385.306824 405.797638,384.669067 414.182098,381.585449 
	C433.328735,374.543488 454.468323,350.356934 453.922699,325.955078 
	C453.842987,322.389526 454.766785,320.775055 458.536621,319.797180 
	C484.338043,313.104309 501.985168,297.851349 508.806763,271.284698 
	C514.178955,250.362717 513.862854,230.013611 502.353973,211.132874 
	C497.285950,202.818634 490.714996,195.428253 485.011566,187.485428 
	C484.137726,186.268524 483.683105,184.194687 484.020782,182.747253 
	C488.970825,161.529800 486.191650,141.014221 475.421021,122.525024 
	C456.706970,90.399925 426.989471,75.748085 390.636444,74.219398 
	C380.829498,73.807014 370.914093,76.176933 361.032318,77.095901 
	C359.715210,77.218384 357.943848,76.699059 356.992584,75.818375 
	C351.145874,70.405350 345.917297,64.233093 339.660736,59.371761 
	C321.774628,45.474255 301.765106,36.843113 277.687683,37.055779 
M490.229614,374.481049 
	C488.833679,372.849731 487.689178,370.872467 485.999939,369.644714 
	C476.809174,362.964844 467.863342,362.499725 459.124939,369.432495 
	C449.589539,376.997650 447.901398,387.067902 453.209229,395.742676 
	C458.529602,404.437988 470.649353,406.775299 481.623535,401.109192 
	C490.226624,396.667267 496.731689,385.876526 490.229614,374.481049 
M516.850342,423.570251 
	C524.892273,418.590057 527.348877,411.107269 523.357300,403.749664 
	C519.289185,396.250977 509.818420,393.266846 501.981110,397.014191 
	C494.262665,400.704742 490.502441,409.642883 493.386536,416.825256 
	C496.816345,425.366669 508.178375,428.512970 516.850342,423.570251 
z"/>
<path fill="#B4D7EF" opacity="1.000000" stroke="none" 
	d="
M944.817078,572.327637 
	C950.138123,572.264404 955.527649,571.635986 960.764282,572.270020 
	C968.698853,573.230835 974.174072,578.078552 976.635193,585.645203 
	C978.474060,591.298523 980.508606,597.168518 980.750183,603.012573 
	C981.813721,628.745972 982.370178,654.502747 982.858582,680.255859 
	C983.003174,687.880737 982.440247,695.527954 982.000488,703.153259 
	C980.759033,724.680725 979.469666,746.205750 978.088928,767.724670 
	C977.154541,782.287109 976.176880,796.849548 974.959351,811.390259 
	C973.508118,828.723450 971.737488,846.029663 970.188293,863.354980 
	C969.376343,872.436462 968.847229,881.543640 968.004883,890.621948 
	C966.474304,907.116272 964.799744,923.597107 963.195923,940.084656 
	C962.137085,950.969543 961.117249,961.858154 960.035217,972.740662 
	C959.740234,975.706848 959.434692,978.686646 958.862732,981.607056 
	C958.102539,985.488708 955.614319,987.662354 951.627625,988.015442 
	C951.131470,988.059448 950.628784,988.035095 950.129150,988.034973 
	C870.346863,988.013428 790.564636,987.991333 710.350830,987.445190 
	C709.942749,972.439575 709.745239,957.953003 710.069763,943.478027 
	C710.275330,934.311707 711.258850,925.162781 711.952209,915.651672 
	C715.642517,906.575745 722.789368,902.154419 731.364563,899.487122 
	C738.351440,897.313965 745.336731,895.135437 752.331482,892.987671 
	C774.093018,886.305420 796.140198,880.417419 817.529541,872.704163 
	C833.308594,867.014099 847.022461,857.484375 856.755127,843.058472 
	C865.176636,830.575928 867.571106,816.418152 869.505432,801.735596 
	C872.158569,795.730652 875.650269,790.171814 876.821350,784.160889 
	C880.106384,767.298645 882.507935,750.261230 885.121277,733.271912 
	C888.488342,711.382629 890.970642,689.325378 895.233215,667.615173 
	C899.210144,647.359741 904.349426,627.265381 910.225037,607.470581 
	C915.208496,590.681274 925.838806,578.317932 943.772827,573.815552 
	C944.217346,573.703918 944.473206,572.840393 944.817078,572.327637 
z"/>
<path fill="#DD7A3E" opacity="1.000000" stroke="none" 
	d="
M424.685608,852.814026 
	C424.746857,845.083923 423.678497,837.128113 425.165955,829.682983 
	C426.881653,821.095703 430.852783,812.959045 434.192902,804.065796 
	C434.871582,802.926636 435.270325,802.376709 435.522278,801.766235 
	C445.996399,776.386108 456.495728,751.016418 466.910583,725.612000 
	C480.670349,692.048523 493.302002,657.969421 512.393738,626.859375 
	C512.872375,626.079468 512.843079,624.987732 513.242310,623.888062 
	C513.719238,623.554382 513.936157,623.312744 514.048584,623.014526 
	C514.012390,623.019226 514.036377,623.088074 514.364563,622.994385 
	C515.982666,621.377380 517.376587,619.929504 518.545715,618.318481 
	C526.962097,606.721619 537.509644,597.905457 551.163391,593.557861 
	C543.337891,620.019775 541.145508,647.568909 528.535889,672.873413 
	C543.186035,672.518433 555.162537,677.236572 566.341309,685.437561 
	C567.914185,677.729797 569.877502,670.960388 570.532593,664.066650 
	C571.142883,657.643738 574.143188,653.291016 578.960266,649.595276 
	C588.536072,642.248413 594.598633,632.492188 598.476929,620.935181 
	C600.184875,620.852295 601.604370,620.921814 602.961548,621.394653 
	C602.278625,625.884338 601.458435,629.951904 601.072937,634.060303 
	C599.586792,649.900085 599.180359,665.906067 596.630127,681.566528 
	C592.319946,708.034790 586.840332,734.318420 581.572632,760.623596 
	C573.505676,800.907166 565.076233,841.118225 557.067993,881.413208 
	C554.402771,894.823486 551.957275,908.274231 543.998596,919.732788 
	C539.096436,926.790710 533.388550,933.288940 527.728149,940.167053 
	C516.748169,948.531799 504.982086,954.557556 491.630280,956.772644 
	C480.885376,958.555298 469.976501,959.343201 459.223053,961.083252 
	C451.910065,962.266541 444.739868,964.332275 437.628174,965.648682 
	C438.813599,963.618530 439.772736,961.865601 440.956024,960.279968 
	C450.459198,947.546326 458.624908,934.070801 464.301758,918.802429 
	C466.056580,914.068787 467.551453,909.584778 468.951294,905.385803 
	C468.007538,904.658997 467.776520,904.368530 467.482605,904.274170 
	C466.218292,903.868225 464.948334,903.465820 463.657471,903.158569 
	C444.581573,898.619873 432.220459,887.341736 428.047516,867.790771 
	C426.979584,862.787292 425.808990,857.805664 424.685608,852.814026 
M563.954590,740.422241 
	C562.119019,748.324158 560.238464,756.215942 558.456726,764.130005 
	C553.875854,784.476929 549.470276,804.864319 544.743958,825.177307 
	C540.800964,842.123718 537.260864,859.220276 526.293396,873.577698 
	C513.554932,890.253540 497.969513,901.313965 476.002960,901.166992 
	C474.057007,901.153931 470.525452,903.137390 470.443146,904.374084 
	C470.212067,907.847412 473.398865,908.051514 476.203430,907.999329 
	C498.764160,907.579163 515.989624,896.941650 529.993835,880.035889 
	C540.608032,867.222534 545.227173,851.795715 548.923096,836.074280 
	C556.461182,804.009399 563.866821,771.910339 570.923523,739.736877 
	C573.539124,727.811707 575.138977,715.655029 576.885681,703.558228 
	C577.125122,701.899902 575.525330,699.975891 574.777100,698.174927 
	C573.497559,699.794250 571.441895,701.251404 571.064087,703.059265 
	C568.528442,715.192627 566.349487,727.400635 563.954590,740.422241 
M517.810608,679.801758 
	C515.073914,676.300415 512.795715,677.987976 511.190063,680.731506 
	C506.573822,688.619019 502.094299,696.590637 497.737152,704.624756 
	C490.680389,717.636719 483.643433,730.662170 476.817230,743.795776 
	C467.067200,762.554932 457.478485,781.398499 447.972595,800.282410 
	C447.426849,801.366516 448.245392,803.137268 448.429016,804.588501 
	C450.210297,804.192993 452.081421,804.007812 453.730591,803.303101 
	C454.433105,803.002930 454.664154,801.612732 455.121735,800.724182 
	C466.858307,777.936279 478.518036,755.108215 490.369781,732.380310 
	C495.749542,722.063660 501.578491,711.982239 507.074219,701.724731 
	C510.820160,694.733154 514.341858,687.621460 517.810608,679.801758 
z"/>
<path fill="#939293" opacity="1.000000" stroke="none" 
	d="
M575.932312,549.327209 
	C565.567566,545.858459 555.195801,542.410522 544.842957,538.906677 
	C542.156616,537.997498 541.368896,536.228577 542.389832,533.444641 
	C551.527649,508.527771 552.688782,482.473694 554.193298,456.310822 
	C555.970703,425.400879 563.043335,395.616669 580.105469,369.175629 
	C594.488586,346.886292 615.743713,334.061005 641.170959,328.169312 
	C669.796021,321.536682 696.286316,327.318848 720.756287,343.336517 
	C723.009155,344.811188 725.829895,345.840088 728.502014,346.185120 
	C748.565979,348.775665 763.074402,359.739014 773.098267,376.597107 
	C788.084412,401.800873 795.442322,428.957611 793.419983,458.627258 
	C792.315857,474.826599 789.947632,490.631622 785.798279,506.315887 
	C780.099548,527.856812 781.566345,549.534119 786.062378,571.938965 
	C784.829102,573.510559 783.639832,574.864258 782.395935,574.916443 
	C770.661438,575.408752 758.896667,576.249329 747.183716,575.818054 
	C739.018799,575.517456 730.921448,573.385254 722.435791,571.999512 
	C714.970764,571.352783 711.898010,566.453674 710.102539,560.446167 
	C706.084045,547.000977 707.649597,534.121948 714.556580,521.931152 
	C715.221008,520.758484 716.479675,519.209412 717.577881,519.110046 
	C725.293457,518.411865 731.262756,514.172058 737.169739,509.839966 
	C747.960205,501.926178 757.131042,492.572266 761.230042,479.449036 
	C765.267700,466.522156 757.760559,456.144836 744.249756,455.969543 
	C740.029236,455.914764 735.702698,456.909729 731.581421,458.010895 
	C725.495178,459.637024 721.100952,458.146576 718.295837,452.563660 
	C716.957825,449.900635 715.588806,447.130280 714.967651,444.250275 
	C711.507568,428.207977 708.084290,412.152161 705.085938,396.019623 
	C704.285095,391.710632 703.157043,390.262054 698.684998,391.542236 
	C692.947510,393.184692 687.060242,394.388855 681.172852,395.408173 
	C650.593079,400.702362 620.001099,405.927612 589.387085,411.018921 
	C586.244629,411.541534 584.820435,413.003174 583.903687,415.839325 
	C579.857361,428.357971 576.641663,440.968689 575.745667,454.223755 
	C573.800598,482.999176 575.066650,511.359467 584.342896,539.299011 
	C582.829712,542.106873 581.400330,544.551941 579.987305,547.001587 
	C580.003723,547.006226 580.003113,546.972168 579.753418,547.062012 
	C579.300903,547.437317 579.098022,547.722778 578.620605,548.187805 
	C577.541443,548.687317 576.736877,549.007263 575.932312,549.327209 
z"/>
<path fill="#83B9E6" opacity="1.000000" stroke="none" 
	d="
M722.793884,572.071228 
	C730.921448,573.385254 739.018799,575.517456 747.183716,575.818054 
	C758.896667,576.249329 770.661438,575.408752 782.395935,574.916443 
	C783.639832,574.864258 784.829102,573.510559 786.108276,572.351746 
	C792.659485,572.013794 799.146057,572.141418 805.632812,572.146545 
	C851.728882,572.182922 897.824951,572.194153 944.369019,572.270508 
	C944.473206,572.840393 944.217346,573.703918 943.772827,573.815552 
	C925.838806,578.317932 915.208496,590.681274 910.225037,607.470581 
	C904.349426,627.265381 899.210144,647.359741 895.233215,667.615173 
	C890.970642,689.325378 888.488342,711.382629 885.121277,733.271912 
	C882.507935,750.261230 880.106384,767.298645 876.821350,784.160889 
	C875.650269,790.171814 872.158569,795.730652 869.484985,801.325439 
	C869.406982,797.837463 869.848633,794.506592 869.690369,791.204468 
	C867.947754,754.845276 860.006714,719.767700 846.804443,685.945618 
	C832.304443,648.799072 809.888672,618.149841 772.381287,601.307678 
	C757.746277,594.736023 742.395569,589.758423 727.159058,583.858154 
	C724.100098,580.530579 721.252869,577.399597 718.134155,573.970154 
	C720.477173,573.015381 721.635498,572.543274 722.793884,572.071228 
z"/>
<path fill="#83B9E6" opacity="1.000000" stroke="none" 
	d="
M424.437988,853.038879 
	C425.808990,857.805664 426.979584,862.787292 428.047516,867.790771 
	C432.220459,887.341736 444.581573,898.619873 463.657471,903.158569 
	C464.948334,903.465820 466.218292,903.868225 467.482605,904.274170 
	C467.776520,904.368530 468.007538,904.658997 468.951294,905.385803 
	C467.551453,909.584778 466.056580,914.068787 463.884521,918.841003 
	C462.247650,919.390564 461.302795,919.784424 460.326141,919.893494 
	C441.929443,921.948547 423.508453,923.802307 405.135773,926.051331 
	C390.492523,927.843750 376.458923,931.785217 364.462891,940.831116 
	C355.856628,947.321045 347.851562,954.743103 346.623566,966.176758 
	C345.853821,973.343201 346.825134,980.696716 347.015259,987.966248 
	C325.028015,988.006470 303.040771,988.085388 281.053589,988.062561 
	C274.810669,988.056091 272.932190,986.238708 272.923737,980.030640 
	C272.895996,959.708496 272.885803,939.384827 273.111908,919.064453 
	C273.241211,907.441956 278.356537,900.783386 290.084900,898.259338 
	C302.404083,895.608093 314.958405,894.056763 327.399536,891.962708 
	C347.024323,888.659546 366.836212,886.157227 386.200012,881.709717 
	C402.570465,877.949646 416.060272,868.796204 424.437988,853.038879 
z"/>
<path fill="#84BAE6" opacity="1.000000" stroke="none" 
	d="
M513.050598,624.041443 
	C512.843079,624.987732 512.872375,626.079468 512.393738,626.859375 
	C493.302002,657.969421 480.670349,692.048523 466.910583,725.612000 
	C456.495728,751.016418 445.996399,776.386108 435.522278,801.766235 
	C435.270325,802.376709 434.871582,802.926636 434.282837,803.722290 
	C435.136047,788.191650 436.234192,772.442688 437.363892,756.695923 
	C438.196411,745.091370 439.234467,733.499146 439.893219,721.885071 
	C441.531342,693.005066 442.872803,664.098694 449.168701,635.726807 
	C454.069183,613.643188 463.116821,594.177917 483.004761,581.328613 
	C493.558777,574.509827 505.202728,571.478943 517.482971,571.073242 
	C530.599426,570.639954 543.741943,570.996521 557.310181,571.408447 
	C556.519714,575.237183 555.292114,578.665649 553.986633,581.739990 
	C552.832520,581.149841 551.545593,580.415100 550.716980,580.765137 
	C547.376404,582.176208 544.087463,583.765686 540.941223,585.571289 
	C526.292725,593.978271 517.773560,606.830627 514.036377,623.088074 
	C514.036377,623.088074 514.012390,623.019226 513.819275,623.123413 
	C513.434326,623.498840 513.242493,623.770142 513.050598,624.041443 
z"/>
<path fill="#D0D7E2" opacity="1.000000" stroke="none" 
	d="
M278.156494,37.054138 
	C301.765106,36.843113 321.774628,45.474255 339.660736,59.371761 
	C345.917297,64.233093 351.145874,70.405350 356.992584,75.818375 
	C357.943848,76.699059 359.715210,77.218384 361.032318,77.095901 
	C370.914093,76.176933 380.829498,73.807014 390.636444,74.219398 
	C426.989471,75.748085 456.706970,90.399925 475.421021,122.525024 
	C486.191650,141.014221 488.970825,161.529800 484.020782,182.747253 
	C483.683105,184.194687 484.137726,186.268524 485.011566,187.485428 
	C490.714996,195.428253 497.285950,202.818634 502.353973,211.132874 
	C513.862854,230.013611 514.178955,250.362717 508.806763,271.284698 
	C501.985168,297.851349 484.338043,313.104309 458.536621,319.797180 
	C454.766785,320.775055 453.842987,322.389526 453.922699,325.955078 
	C454.468323,350.356934 433.328735,374.543488 414.182098,381.585449 
	C405.797638,384.669067 397.394287,385.306824 388.731201,384.941864 
	C385.846497,384.820343 383.954865,385.530975 382.109802,388.118011 
	C371.516357,402.971222 355.700531,408.955078 338.696014,411.855530 
	C316.010498,415.724945 294.438568,411.673187 274.170074,400.611420 
	C272.468048,399.682495 269.653320,399.462311 267.889282,400.196045 
	C257.484650,404.523773 246.786118,407.045471 235.480179,407.062012 
	C222.021042,407.081665 208.621201,407.247101 195.469193,403.351074 
	C170.788589,396.039856 151.679321,381.571381 137.954041,359.866882 
	C132.224106,350.805817 129.509125,340.882477 128.879349,330.223419 
	C128.786148,328.645966 127.025810,326.556427 125.490616,325.770050 
	C111.536377,318.622345 97.716225,311.317444 87.001648,299.467072 
	C75.796745,287.074432 69.730011,272.222351 68.206078,255.853195 
	C67.262444,245.717377 67.483063,235.303391 68.638824,225.180725 
	C70.484680,209.013794 78.675247,195.636887 90.702728,184.992599 
	C97.422043,179.045990 99.865242,173.948029 97.515594,164.157776 
	C91.652000,139.725937 100.045280,118.369965 116.526321,99.975311 
	C128.729767,86.354942 143.470276,76.874367 161.431122,72.738579 
	C173.799744,69.890488 186.175171,70.179428 198.395721,73.370140 
	C202.757065,74.508858 205.319382,73.501236 208.163422,69.973763 
	C221.801346,53.058556 238.914780,41.771862 260.915283,38.972561 
	C266.497009,38.262352 272.096405,37.690956 278.156494,37.054138 
M293.110535,44.180424 
	C280.990387,41.975338 268.956635,42.927914 257.045593,45.525574 
	C237.092499,49.877121 221.610229,61.010410 210.047974,77.626930 
	C207.800308,80.857147 205.687363,81.357841 202.125626,80.251167 
	C191.023392,76.801605 179.436417,75.525330 168.093567,77.363091 
	C147.059647,80.770988 130.057892,91.559006 117.001083,108.498131 
	C103.014847,126.643044 98.207314,146.741104 104.216156,169.027145 
	C106.909454,179.016220 107.149780,178.951736 99.071304,184.952576 
	C98.938705,185.051056 98.760155,185.092865 98.639542,185.201599 
	C88.083305,194.719666 79.845688,205.707230 75.850571,219.637283 
	C72.244431,232.211075 72.153046,244.910065 74.094284,257.636505 
	C76.570648,273.871185 83.511551,288.165131 95.435654,299.478821 
	C105.765541,309.279907 118.119064,316.278748 131.340652,321.535919 
	C134.246780,322.691467 134.856583,324.193237 135.082581,327.014160 
	C135.556595,332.931427 135.607605,339.143494 137.535461,344.636841 
	C144.768692,365.247620 159.499390,379.657990 178.202667,389.984680 
	C196.928192,400.323608 217.288406,402.940369 238.444321,401.123901 
	C249.166428,400.203308 259.411774,398.124817 268.938629,392.878387 
	C270.134705,392.219696 272.529846,392.600220 273.808319,393.398193 
	C297.051331,407.906158 321.986053,410.438202 348.081940,403.747711 
	C359.810059,400.740814 370.592377,394.973572 377.079468,384.705566 
	C380.844757,378.745728 384.585846,378.275787 390.225586,379.035309 
	C404.864197,381.006775 417.452820,376.067169 428.010712,366.335510 
	C441.274933,354.109344 449.651398,339.434418 448.047119,320.540527 
	C447.786438,317.470551 448.924347,315.608551 452.298370,314.978760 
	C474.658112,310.805145 491.740479,299.809662 500.187592,277.676483 
	C506.524445,261.072723 508.695282,244.234604 503.112762,227.011765 
	C498.487885,212.743347 489.463165,201.257919 479.116669,190.758881 
	C476.843506,188.452194 475.965820,186.531036 477.283905,183.413528 
	C481.039825,174.530014 480.772888,165.035446 479.790710,155.846313 
	C476.589111,125.892853 459.765320,104.898926 433.930145,91.159943 
	C411.038025,78.986084 386.509918,76.873116 361.381897,83.411842 
	C357.512939,84.418602 354.864014,83.896713 352.279236,80.609619 
	C337.249969,61.496796 317.942078,49.158714 293.110535,44.180424 
z"/>
<path fill="#FEBF55" opacity="1.000000" stroke="none" 
	d="
M437.505798,966.003540 
	C444.739868,964.332275 451.910065,962.266541 459.223053,961.083252 
	C469.976501,959.343201 480.885376,958.555298 491.630280,956.772644 
	C504.982086,954.557556 516.748169,948.531799 528.055542,940.333130 
	C531.027405,941.045715 533.350586,941.746582 535.689148,942.391663 
	C561.059875,949.390198 587.211304,950.705627 613.194824,953.496338 
	C613.102112,960.737671 612.852783,967.518066 613.022156,974.287964 
	C613.233215,982.728394 615.843079,985.134399 624.303284,985.371460 
	C627.403076,986.083557 630.229187,986.538452 633.244202,987.100342 
	C633.667358,987.395386 633.821228,987.634949 633.894714,987.926147 
	C606.742493,987.980530 579.590271,988.076660 552.438049,988.080261 
	C500.626068,988.087158 448.814087,988.041382 396.698120,987.666565 
	C408.710541,977.535034 422.661285,970.907227 437.505798,966.003540 
z"/>
<path fill="#FDD9B7" opacity="1.000000" stroke="none" 
	d="
M554.064514,582.094116 
	C555.292114,578.665649 556.519714,575.237183 557.763245,571.452393 
	C563.810547,564.052490 569.841919,557.008911 575.902832,549.646301 
	C576.736877,549.007263 577.541443,548.687317 578.878784,548.101990 
	C579.608765,547.548462 579.805908,547.260315 580.003113,546.972168 
	C580.003113,546.972168 580.003723,547.006226 580.345215,546.991150 
	C584.653564,544.281433 588.616150,541.580505 592.588379,538.893860 
	C596.632446,536.158630 600.895020,535.875427 604.563538,539.121033 
	C609.265930,543.281372 613.604614,547.867981 617.910706,552.448853 
	C618.829651,553.426392 618.935303,555.168274 619.415588,556.558044 
	C617.718689,556.905151 615.749023,557.964539 614.384888,557.442383 
	C611.975220,556.519958 609.736328,554.856445 607.775513,553.110596 
	C601.506226,547.528503 599.841858,547.501465 593.900024,553.668518 
	C592.638184,554.978210 591.434814,556.393555 590.472412,557.928162 
	C589.577576,559.355042 588.059265,561.774780 588.548523,562.399048 
	C589.581543,563.716980 591.673767,564.435303 593.460999,564.889954 
	C599.867981,566.519714 606.436096,567.601501 612.715393,569.604797 
	C615.125671,570.373657 617.528381,572.722900 618.795349,574.988953 
	C619.687439,576.584595 618.656921,579.255127 618.484863,581.445740 
	C616.800903,581.214844 615.069519,581.160095 613.441162,580.722351 
	C606.731384,578.918701 600.084656,576.865967 593.332581,575.247192 
	C592.154053,574.964600 590.580505,576.329468 589.189453,576.933472 
	C590.114990,578.102966 590.893372,579.452576 592.021423,580.374084 
	C592.693848,580.923401 593.935974,580.726501 594.886414,580.992249 
	C600.310303,582.509033 605.888184,583.648010 611.098877,585.710693 
	C617.716187,588.330139 618.995483,594.119446 614.463440,599.039307 
	C613.929382,598.745361 613.274597,598.528442 612.806030,598.105286 
	C606.514893,592.423645 598.420410,591.691589 590.656860,590.186462 
	C589.650452,589.991333 588.329956,591.415894 587.154907,592.090149 
	C587.995728,593.158325 588.666748,594.466248 589.730530,595.219666 
	C590.597961,595.833984 591.959595,595.705688 593.059509,596.044617 
	C597.640198,597.456421 602.350220,598.581116 606.734741,600.459839 
	C611.175903,602.363098 611.761536,605.196106 609.551636,609.878601 
	C607.568115,614.081543 603.900208,615.587769 599.912781,613.797852 
	C599.696411,613.700806 599.637634,613.252502 599.503967,612.966187 
	C600.256226,612.005005 601.010010,611.045471 602.707703,608.884521 
	C597.369568,608.539001 593.185303,608.080688 588.997314,608.043823 
	C583.551392,607.995850 580.818726,610.273743 579.301758,615.528320 
	C578.152771,619.508179 576.820251,623.443604 575.883423,627.471863 
	C575.524597,629.015198 576.038147,630.761414 576.154114,632.415222 
	C577.811096,631.716370 579.797607,631.368225 581.026184,630.213562 
	C582.111755,629.193298 582.521667,627.317932 582.929443,625.742371 
	C583.675720,622.858459 584.242065,619.925232 584.806396,616.997681 
	C585.415527,613.838013 587.885132,613.049500 590.011597,614.288635 
	C593.032043,616.049011 595.490173,618.774475 598.188538,621.087585 
	C594.598633,632.492188 588.536072,642.248413 578.960266,649.595276 
	C574.143188,653.291016 571.142883,657.643738 570.532593,664.066650 
	C569.877502,670.960388 567.914185,677.729797 566.341309,685.437561 
	C555.162537,677.236572 543.186035,672.518433 528.535889,672.873413 
	C541.145508,647.568909 543.337891,620.019775 551.276245,593.287109 
	C552.285461,589.073853 553.174988,585.583984 554.064514,582.094116 
z"/>
<path fill="#5897DC" opacity="1.000000" stroke="none" 
	d="
M437.628204,965.648682 
	C422.661285,970.907227 408.710541,977.535034 396.239014,987.597717 
	C380.037994,987.939697 363.992157,987.999573 347.480774,988.012878 
	C346.825134,980.696716 345.853821,973.343201 346.623566,966.176758 
	C347.851562,954.743103 355.856628,947.321045 364.462891,940.831116 
	C376.458923,931.785217 390.492523,927.843750 405.135773,926.051331 
	C423.508453,923.802307 441.929443,921.948547 460.326141,919.893494 
	C461.302795,919.784424 462.247650,919.390564 463.624512,919.090698 
	C458.624908,934.070801 450.459198,947.546326 440.956024,960.279968 
	C439.772736,961.865601 438.813599,963.618530 437.628204,965.648682 
z"/>
<path fill="#FDD9B7" opacity="1.000000" stroke="none" 
	d="
M634.361816,987.968628 
	C633.821228,987.634949 633.667358,987.395386 633.184326,986.723267 
	C631.929504,980.259033 629.974854,974.246216 630.180176,968.307983 
	C630.391907,962.183899 632.790100,956.149414 634.025940,950.034241 
	C634.259338,948.879211 633.528259,947.529175 633.242310,946.269165 
	C631.782349,946.651489 630.199463,946.806885 628.910645,947.505127 
	C628.188293,947.896362 627.819824,949.143372 627.518738,950.077820 
	C624.706726,958.805054 622.799561,967.578735 624.674561,976.878601 
	C625.198059,979.474915 624.284119,982.360962 624.029602,985.114136 
	C615.843079,985.134399 613.233215,982.728394 613.022156,974.287964 
	C612.852783,967.518066 613.102112,960.737671 613.429016,953.219666 
	C615.521729,946.282593 616.935425,939.925903 619.271851,933.928711 
	C623.412720,923.299927 629.863464,914.390259 640.492432,909.223083 
	C650.334045,904.438599 660.196289,899.696533 670.351318,895.103699 
	C678.758789,898.588867 681.935730,906.073608 685.778564,913.442139 
	C686.015015,914.460388 686.136719,915.110901 686.329956,915.739502 
	C692.922668,937.184631 693.851379,943.594116 676.572937,956.770447 
	C676.046143,957.172241 675.543823,957.606140 674.677368,958.051941 
	C670.987854,960.192749 667.523071,962.131531 664.341187,964.457397 
	C657.934692,969.140259 658.576416,979.559753 665.244446,983.714111 
	C666.792603,984.678711 667.845703,986.437866 669.126648,987.831421 
	C663.698425,987.885681 658.270203,987.939941 652.234314,987.628845 
	C647.297791,978.139709 646.523865,968.889771 650.147339,959.281189 
	C650.669983,957.895264 649.555725,955.891907 649.198975,954.174316 
	C647.663696,955.077332 645.259949,955.646851 644.760437,956.947571 
	C643.413330,960.455383 642.014221,964.320679 642.207581,967.960571 
	C642.562988,974.649780 644.045593,981.279175 645.058350,987.933472 
	C641.648499,987.959290 638.238708,987.985168 634.361816,987.968628 
z"/>
<path fill="#DA7538" opacity="1.000000" stroke="none" 
	d="
M675.030029,958.025024 
	C675.543823,957.606140 676.046143,957.172241 676.572937,956.770447 
	C693.851379,943.594116 692.922668,937.184631 686.329956,915.739502 
	C686.136719,915.110901 686.015015,914.460388 686.153931,913.447571 
	C689.218018,916.233032 691.816589,919.567932 694.822083,922.483215 
	C696.646362,924.252747 699.062317,926.458618 701.279297,926.535339 
	C704.734680,926.654907 707.017029,924.080139 708.101807,920.410950 
	C708.602661,918.717041 710.583618,917.460754 711.893433,916.006104 
	C711.258850,925.162781 710.275330,934.311707 710.069763,943.478027 
	C709.745239,957.953003 709.942749,972.439575 709.876343,987.373779 
	C699.580383,987.895996 689.327209,987.965637 678.580444,987.551758 
	C677.034912,978.061462 675.982910,969.054626 674.961792,959.711182 
	C675.005127,958.924683 675.017578,958.474854 675.030029,958.025024 
z"/>
<path fill="#D0D7E2" opacity="1.000000" stroke="none" 
	d="
M490.412537,374.811157 
	C496.731689,385.876526 490.226624,396.667267 481.623535,401.109192 
	C470.649353,406.775299 458.529602,404.437988 453.209229,395.742676 
	C447.901398,387.067902 449.589539,376.997650 459.124939,369.432495 
	C467.863342,362.499725 476.809174,362.964844 485.999939,369.644714 
	C487.689178,370.872467 488.833679,372.849731 490.412537,374.811157 
M469.459076,399.008850 
	C478.173157,398.003418 486.155212,392.013824 486.990143,385.880768 
	C487.701813,380.653198 486.271118,376.245422 481.655731,373.428558 
	C476.154083,370.070709 470.400909,368.699707 464.361847,372.346893 
	C458.806030,375.702301 455.087311,382.839050 456.218933,388.181152 
	C457.618835,394.789734 461.564941,398.235168 469.459076,399.008850 
z"/>
<path fill="#D0D7E2" opacity="1.000000" stroke="none" 
	d="
M516.507812,423.745667 
	C508.178375,428.512970 496.816345,425.366669 493.386536,416.825256 
	C490.502441,409.642883 494.262665,400.704742 501.981110,397.014191 
	C509.818420,393.266846 519.289185,396.250977 523.357300,403.749664 
	C527.348877,411.107269 524.892273,418.590057 516.507812,423.745667 
M499.781128,405.462524 
	C496.928467,411.401001 497.441681,415.524231 501.452759,418.892975 
	C504.919647,421.804657 510.295044,421.791382 514.801086,418.430267 
	C518.179871,415.910034 521.268127,412.923370 519.422363,407.994720 
	C517.748291,403.524414 512.453857,400.183594 507.438019,401.109131 
	C504.867401,401.583527 502.563782,403.504639 499.781128,405.462524 
z"/>
<path fill="#EAAE7E" opacity="1.000000" stroke="none" 
	d="
M645.482910,988.001038 
	C644.045593,981.279175 642.562988,974.649780 642.207581,967.960571 
	C642.014221,964.320679 643.413330,960.455383 644.760437,956.947571 
	C645.259949,955.646851 647.663696,955.077332 649.198975,954.174316 
	C649.555725,955.891907 650.669983,957.895264 650.147339,959.281189 
	C646.523865,968.889771 647.297791,978.139709 651.761475,987.587646 
	C649.900024,987.963989 647.903748,988.016296 645.482910,988.001038 
z"/>
<path fill="#FEBF55" opacity="1.000000" stroke="none" 
	d="
M674.930908,960.047852 
	C675.982910,969.054626 677.034912,978.061462 678.127319,987.478149 
	C676.407104,987.962830 674.646362,988.037598 672.436279,987.676270 
	C670.733459,985.059021 669.791992,982.604187 668.165222,980.750854 
	C664.078674,976.094971 663.962341,971.807129 668.230103,967.262451 
	C670.476807,964.869873 672.698120,962.453491 674.930908,960.047852 
z"/>
<path fill="#EAAE7E" opacity="1.000000" stroke="none" 
	d="
M674.961792,959.711182 
	C672.698120,962.453491 670.476807,964.869873 668.230103,967.262451 
	C663.962341,971.807129 664.078674,976.094971 668.165222,980.750854 
	C669.791992,982.604187 670.733459,985.059021 672.001953,987.622498 
	C671.292358,987.980225 670.567688,987.955505 669.484863,987.881104 
	C667.845703,986.437866 666.792603,984.678711 665.244446,983.714111 
	C658.576416,979.559753 657.934692,969.140259 664.341187,964.457397 
	C667.523071,962.131531 670.987854,960.192749 674.677368,958.051941 
	C675.017578,958.474854 675.005127,958.924683 674.961792,959.711182 
z"/>
<path fill="#DD793D" opacity="1.000000" stroke="none" 
	d="
M711.952271,915.651733 
	C710.583618,917.460754 708.602661,918.717041 708.101807,920.410950 
	C707.017029,924.080139 704.734680,926.654907 701.279297,926.535339 
	C699.062317,926.458618 696.646362,924.252747 694.822083,922.483215 
	C691.816589,919.567932 689.218018,916.233032 686.072510,913.069641 
	C681.935730,906.073608 678.758789,898.588867 670.383362,894.763550 
	C673.044678,892.136902 675.975708,890.018250 678.950562,888.276733 
	C679.517700,892.377075 681.092041,893.110168 684.821594,891.738037 
	C704.908752,884.348389 724.911133,876.630371 745.334534,870.287292 
	C758.877502,866.081116 773.043457,863.818481 787.000610,861.037720 
	C792.817749,859.878845 798.861450,859.878235 804.704407,858.814453 
	C806.296570,858.524597 807.533997,856.286926 808.934326,854.943237 
	C807.495850,853.967773 806.115295,852.294373 804.606201,852.168945 
	C801.857483,851.940613 799.036133,852.671448 796.238525,852.931152 
	C771.987427,855.182434 748.665527,861.629333 725.633972,869.085083 
	C711.909607,873.527954 698.511108,878.977417 684.965210,883.527710 
	C686.099365,873.207458 687.104126,863.316711 688.401550,853.464417 
	C690.152893,840.165161 692.212646,826.906677 693.987793,813.610352 
	C696.157776,797.356506 698.037354,781.063110 700.286987,764.820740 
	C702.695190,747.432983 705.088928,730.033813 708.029724,712.731567 
	C711.942505,689.710632 716.246948,666.753479 720.639893,643.818054 
	C723.132202,630.805847 726.137390,617.891968 729.094849,604.598877 
	C732.845093,597.130920 731.497864,590.461670 727.370789,584.054810 
	C742.395569,589.758423 757.746277,594.736023 772.381287,601.307678 
	C809.888672,618.149841 832.304443,648.799072 846.804443,685.945618 
	C860.006714,719.767700 867.947754,754.845276 869.690369,791.204468 
	C869.848633,794.506592 869.406982,797.837463 869.264282,801.565186 
	C867.571106,816.418152 865.176636,830.575928 856.755127,843.058472 
	C847.022461,857.484375 833.308594,867.014099 817.529541,872.704163 
	C796.140198,880.417419 774.093018,886.305420 752.331482,892.987671 
	C745.336731,895.135437 738.351440,897.313965 731.364563,899.487122 
	C722.789368,902.154419 715.642517,906.575745 711.952271,915.651733 
M759.505676,792.015686 
	C758.339417,778.327881 757.080078,764.646973 756.074097,750.947388 
	C755.830261,747.627136 755.652405,743.383545 751.999634,743.672791 
	C747.395203,744.037415 748.914734,748.888367 749.139160,751.899719 
	C750.258118,766.916199 751.997803,781.891602 752.882874,796.919006 
	C753.926819,814.644104 754.217163,832.412842 755.137207,850.147034 
	C755.238770,852.105591 757.325439,853.961060 758.491455,855.864380 
	C759.652039,853.956177 761.766052,852.065186 761.800842,850.136658 
	C761.923157,843.352844 761.272217,836.558228 761.023315,829.763794 
	C760.573303,817.480591 760.201538,805.194397 759.505676,792.015686 
z"/>
<path fill="#F7A573" opacity="1.000000" stroke="none" 
	d="
M728.911621,604.933777 
	C726.137390,617.891968 723.132202,630.805847 720.639893,643.818054 
	C716.246948,666.753479 711.942505,689.710632 708.029724,712.731567 
	C705.088928,730.033813 702.695190,747.432983 700.286987,764.820740 
	C698.037354,781.063110 696.157776,797.356506 693.987793,813.610352 
	C692.212646,826.906677 690.152893,840.165161 688.401550,853.464417 
	C687.104126,863.316711 686.099365,873.207458 684.691040,883.712341 
	C682.580750,885.528870 680.743774,886.714233 678.906738,887.899658 
	C675.975708,890.018250 673.044678,892.136902 670.081543,894.595703 
	C660.196289,899.696533 650.334045,904.438599 640.492432,909.223083 
	C629.863464,914.390259 623.412720,923.299927 619.271851,933.928711 
	C616.935425,939.925903 615.521729,946.282593 613.458130,952.754028 
	C587.211304,950.705627 561.059875,949.390198 535.689148,942.391663 
	C533.350586,941.746582 531.027405,941.045715 528.369751,940.204590 
	C533.388550,933.288940 539.096436,926.790710 543.998596,919.732788 
	C551.957275,908.274231 554.402771,894.823486 557.067993,881.413208 
	C565.076233,841.118225 573.505676,800.907166 581.572632,760.623596 
	C586.840332,734.318420 592.319946,708.034790 596.630127,681.566528 
	C599.180359,665.906067 599.586792,649.900085 601.072937,634.060303 
	C601.458435,629.951904 602.278625,625.884338 603.308716,621.241821 
	C605.474121,620.456665 607.229919,620.227661 609.310547,620.124329 
	C621.730469,627.580505 634.716553,631.845398 648.886353,633.352295 
	C664.399719,635.002014 679.322571,633.315308 693.846863,628.013733 
	C707.308228,623.100098 718.727234,614.913086 728.911621,604.933777 
z"/>
<path fill="#CE5B18" opacity="1.000000" stroke="none" 
	d="
M564.004761,740.003296 
	C566.349487,727.400635 568.528442,715.192627 571.064087,703.059265 
	C571.441895,701.251404 573.497559,699.794250 574.777100,698.174927 
	C575.525330,699.975891 577.125122,701.899902 576.885681,703.558228 
	C575.138977,715.655029 573.539124,727.811707 570.923523,739.736877 
	C563.866821,771.910339 556.461182,804.009399 548.923096,836.074280 
	C545.227173,851.795715 540.608032,867.222534 529.993835,880.035889 
	C515.989624,896.941650 498.764160,907.579163 476.203430,907.999329 
	C473.398865,908.051514 470.212067,907.847412 470.443146,904.374084 
	C470.525452,903.137390 474.057007,901.153931 476.002960,901.166992 
	C497.969513,901.313965 513.554932,890.253540 526.293396,873.577698 
	C537.260864,859.220276 540.800964,842.123718 544.743958,825.177307 
	C549.470276,804.864319 553.875854,784.476929 558.456726,764.130005 
	C560.238464,756.215942 562.119019,748.324158 564.004761,740.003296 
z"/>
<path fill="#E6A676" opacity="1.000000" stroke="none" 
	d="
M608.985718,619.998657 
	C607.229919,620.227661 605.474121,620.456665 603.371094,620.838501 
	C601.604370,620.921814 600.184875,620.852295 598.476929,620.935181 
	C595.490173,618.774475 593.032043,616.049011 590.011597,614.288635 
	C587.885132,613.049500 585.415527,613.838013 584.806396,616.997681 
	C584.242065,619.925232 583.675720,622.858459 582.929443,625.742371 
	C582.521667,627.317932 582.111755,629.193298 581.026184,630.213562 
	C579.797607,631.368225 577.811096,631.716370 576.154114,632.415222 
	C576.038147,630.761414 575.524597,629.015198 575.883423,627.471863 
	C576.820251,623.443604 578.152771,619.508179 579.301758,615.528320 
	C580.818726,610.273743 583.551392,607.995850 588.997314,608.043823 
	C593.185303,608.080688 597.369568,608.539001 602.707703,608.884521 
	C601.010010,611.045471 600.256226,612.005005 599.503967,612.966187 
	C599.637634,613.252502 599.696411,613.700806 599.912781,613.797852 
	C603.900208,615.587769 607.568115,614.081543 609.551636,609.878601 
	C611.761536,605.196106 611.175903,602.363098 606.734741,600.459839 
	C602.350220,598.581116 597.640198,597.456421 593.059509,596.044617 
	C591.959595,595.705688 590.597961,595.833984 589.730530,595.219666 
	C588.666748,594.466248 587.995728,593.158325 587.154907,592.090149 
	C588.329956,591.415894 589.650452,589.991333 590.656860,590.186462 
	C598.420410,591.691589 606.514893,592.423645 612.806030,598.105286 
	C613.274597,598.528442 613.929382,598.745361 614.463440,599.039307 
	C618.995483,594.119446 617.716187,588.330139 611.098877,585.710693 
	C605.888184,583.648010 600.310303,582.509033 594.886414,580.992249 
	C593.935974,580.726501 592.693848,580.923401 592.021423,580.374084 
	C590.893372,579.452576 590.114990,578.102966 589.189453,576.933472 
	C590.580505,576.329468 592.154053,574.964600 593.332581,575.247192 
	C600.084656,576.865967 606.731384,578.918701 613.441162,580.722351 
	C615.069519,581.160095 616.800903,581.214844 618.484863,581.445740 
	C618.656921,579.255127 619.687439,576.584595 618.795349,574.988953 
	C617.528381,572.722900 615.125671,570.373657 612.715393,569.604797 
	C606.436096,567.601501 599.867981,566.519714 593.460999,564.889954 
	C591.673767,564.435303 589.581543,563.716980 588.548523,562.399048 
	C588.059265,561.774780 589.577576,559.355042 590.472412,557.928162 
	C591.434814,556.393555 592.638184,554.978210 593.900024,553.668518 
	C599.841858,547.501465 601.506226,547.528503 607.775513,553.110596 
	C609.736328,554.856445 611.975220,556.519958 614.384888,557.442383 
	C615.749023,557.964539 617.718689,556.905151 619.415588,556.558044 
	C618.935303,555.168274 618.829651,553.426392 617.910706,552.448853 
	C613.604614,547.867981 609.265930,543.281372 604.563538,539.121033 
	C600.895020,535.875427 596.632446,536.158630 592.588379,538.893860 
	C588.616150,541.580505 584.653564,544.281433 580.328857,546.986511 
	C581.400330,544.551941 582.829712,542.106873 584.646057,539.257263 
	C586.180542,537.915588 587.367310,537.022217 588.469238,536.034241 
	C595.637939,529.606689 601.535889,529.053955 608.783752,535.363159 
	C614.382996,540.237122 619.436279,545.830872 624.187927,551.556335 
	C627.915771,556.048035 626.407898,559.907715 620.882385,561.906799 
	C614.128479,564.350220 609.028625,561.353882 604.289368,556.912476 
	C601.223328,554.039124 600.537354,554.297180 598.245483,559.143860 
	C603.991638,560.985840 609.613281,562.917969 615.313660,564.580017 
	C621.472839,566.375793 625.938904,570.613342 625.384399,576.631897 
	C624.575928,585.407654 622.597900,594.296448 619.578918,602.575745 
	C617.295288,608.838196 612.604919,614.223145 608.985718,619.998657 
z"/>
<path fill="#CE5B18" opacity="1.000000" stroke="none" 
	d="
M517.887207,680.182617 
	C514.341858,687.621460 510.820160,694.733154 507.074219,701.724731 
	C501.578491,711.982239 495.749542,722.063660 490.369781,732.380310 
	C478.518036,755.108215 466.858307,777.936279 455.121735,800.724182 
	C454.664154,801.612732 454.433105,803.002930 453.730591,803.303101 
	C452.081421,804.007812 450.210297,804.192993 448.429016,804.588501 
	C448.245392,803.137268 447.426849,801.366516 447.972595,800.282410 
	C457.478485,781.398499 467.067200,762.554932 476.817230,743.795776 
	C483.643433,730.662170 490.680389,717.636719 497.737152,704.624756 
	C502.094299,696.590637 506.573822,688.619019 511.190063,680.731506 
	C512.795715,677.987976 515.073914,676.300415 517.887207,680.182617 
z"/>
<path fill="#5897DC" opacity="1.000000" stroke="none" 
	d="
M553.986633,581.739990 
	C553.174988,585.583984 552.285461,589.073853 551.283020,592.834473 
	C537.509644,597.905457 526.962097,606.721619 518.545715,618.318481 
	C517.376587,619.929504 515.982666,621.377380 514.364563,622.994385 
	C517.773560,606.830627 526.292725,593.978271 540.941223,585.571289 
	C544.087463,583.765686 547.376404,582.176208 550.716980,580.765137 
	C551.545593,580.415100 552.832520,581.149841 553.986633,581.739990 
z"/>
<path fill="#5897DC" opacity="1.000000" stroke="none" 
	d="
M513.242310,623.888062 
	C513.242493,623.770142 513.434326,623.498840 513.855469,623.118652 
	C513.936157,623.312744 513.719238,623.554382 513.242310,623.888062 
z"/>
<path fill="#FDDBB9" opacity="1.000000" stroke="none" 
	d="
M609.310547,620.124329 
	C612.604919,614.223145 617.295288,608.838196 619.578918,602.575745 
	C622.597900,594.296448 624.575928,585.407654 625.384399,576.631897 
	C625.938904,570.613342 621.472839,566.375793 615.313660,564.580017 
	C609.613281,562.917969 603.991638,560.985840 598.245483,559.143860 
	C600.537354,554.297180 601.223328,554.039124 604.289368,556.912476 
	C609.028625,561.353882 614.128479,564.350220 620.882385,561.906799 
	C626.407898,559.907715 627.915771,556.048035 624.187927,551.556335 
	C619.436279,545.830872 614.382996,540.237122 608.783752,535.363159 
	C601.535889,529.053955 595.637939,529.606689 588.469238,536.034241 
	C587.367310,537.022217 586.180542,537.915588 584.729858,538.894470 
	C575.066650,511.359467 573.800598,482.999176 575.745667,454.223755 
	C576.641663,440.968689 579.857361,428.357971 583.903687,415.839325 
	C584.820435,413.003174 586.244629,411.541534 589.387085,411.018921 
	C620.001099,405.927612 650.593079,400.702362 681.172852,395.408173 
	C687.060242,394.388855 692.947510,393.184692 698.684998,391.542236 
	C703.157043,390.262054 704.285095,391.710632 705.085938,396.019623 
	C708.084290,412.152161 711.507568,428.207977 714.967651,444.250275 
	C715.588806,447.130280 716.957825,449.900635 718.295837,452.563660 
	C721.100952,458.146576 725.495178,459.637024 731.581421,458.010895 
	C735.702698,456.909729 740.029236,455.914764 744.249756,455.969543 
	C757.760559,456.144836 765.267700,466.522156 761.230042,479.449036 
	C757.131042,492.572266 747.960205,501.926178 737.169739,509.839966 
	C731.262756,514.172058 725.293457,518.411865 717.577881,519.110046 
	C716.479675,519.209412 715.221008,520.758484 714.556580,521.931152 
	C707.649597,534.121948 706.084045,547.000977 710.102539,560.446167 
	C711.898010,566.453674 714.970764,571.352783 722.435791,571.999512 
	C721.635498,572.543274 720.477173,573.015381 718.134155,573.970154 
	C721.252869,577.399597 724.100098,580.530579 727.159058,583.858154 
	C731.497864,590.461670 732.845093,597.130920 729.094849,604.598877 
	C718.727234,614.913086 707.308228,623.100098 693.846863,628.013733 
	C679.322571,633.315308 664.399719,635.002014 648.886353,633.352295 
	C634.716553,631.845398 621.730469,627.580505 609.310547,620.124329 
M639.917114,502.441467 
	C638.407837,500.991821 637.133484,499.002441 635.334167,498.219330 
	C632.652588,497.052368 629.537781,496.931091 626.718872,496.019775 
	C620.061829,493.867645 619.047363,491.648346 622.323364,485.481781 
	C626.054016,478.459473 630.300110,471.710449 634.004211,464.675262 
	C634.745056,463.268158 634.054810,461.107513 634.024475,459.294312 
	C632.267944,459.833130 629.564575,459.834717 628.905579,460.996277 
	C623.924194,469.775574 619.052124,478.645386 614.760376,487.775696 
	C612.577942,492.418579 614.401367,496.782227 619.211304,498.959595 
	C624.597168,501.397614 630.359863,503.047485 636.051819,504.723663 
	C637.054810,505.018982 638.515625,503.759705 639.917114,502.441467 
M683.528748,558.028442 
	C675.758240,562.013123 668.110413,566.271545 660.152283,569.837769 
	C657.268982,571.129944 653.519165,570.362183 650.406921,571.320862 
	C648.729553,571.837463 647.564209,574.016418 646.167847,575.445312 
	C647.715210,576.294189 649.306946,577.926453 650.801453,577.841797 
	C654.908447,577.609131 659.069397,577.003723 663.038879,575.921631 
	C674.127380,572.898743 684.114990,567.732483 692.083313,559.270874 
	C693.009949,558.286865 692.748230,556.183777 693.037476,554.599548 
	C691.269958,554.456482 689.352234,553.827393 687.779236,554.313599 
	C686.341492,554.757996 685.276794,556.409363 683.528748,558.028442 
M689.660034,471.972412 
	C688.204468,471.673615 686.760315,471.291199 685.291382,471.090302 
	C678.501648,470.161896 675.237732,471.783539 672.328979,477.487762 
	C676.388123,483.569183 682.730957,484.625397 689.295349,484.892242 
	C690.441284,484.938782 692.738037,483.225067 692.656982,483.004974 
	C690.849182,478.101135 695.725281,477.559204 697.693726,475.188751 
	C696.867981,470.490601 693.182007,472.420959 689.660034,471.972412 
M639.339722,525.939819 
	C631.246277,525.374695 623.086365,525.114746 615.809387,520.804382 
	C615.669495,520.721497 615.496399,520.695923 615.340393,520.639038 
	C612.617065,519.645935 609.610168,519.315674 608.755432,522.551636 
	C608.502930,523.507507 611.688904,526.227295 613.672913,526.768372 
	C621.767944,528.976074 629.969910,530.859985 638.222534,532.371460 
	C640.156921,532.725769 642.443359,531.157715 644.567871,530.473999 
	C643.093872,528.996338 641.619873,527.518738 639.339722,525.939819 
M662.370544,465.939148 
	C663.412659,469.972137 666.033569,472.913025 670.123169,472.079376 
	C672.702454,471.553558 675.888916,469.074463 676.794312,466.704285 
	C677.640930,464.487976 676.635437,460.532654 674.960754,458.696838 
	C673.508423,457.104797 669.792603,456.555847 667.406250,457.070679 
	C663.569519,457.898499 662.104431,461.274994 662.370544,465.939148 
M755.486572,474.102417 
	C749.811340,464.375092 736.957520,463.079102 727.217041,471.458252 
	C725.870667,472.616455 725.424072,474.820557 724.560913,476.540466 
	C726.600708,476.310150 728.737244,476.384003 730.656311,475.773926 
	C733.148071,474.981720 735.389099,473.407898 737.876709,472.594147 
	C742.610168,471.045746 746.624817,472.141998 749.684204,476.350098 
	C750.456665,477.412628 751.821594,478.044464 752.914185,478.874176 
	C753.857544,477.513000 754.800842,476.151825 755.486572,474.102417 
M606.321472,450.457062 
	C604.439453,445.806366 600.801636,444.940155 596.508118,446.279602 
	C593.023193,447.366791 590.865479,452.371002 591.996094,456.335175 
	C593.128784,460.307037 596.161560,461.863800 600.012878,461.598206 
	C604.197632,461.309631 606.845642,457.655731 606.848511,452.661682 
	C606.848755,452.171326 606.683044,451.680908 606.321472,450.457062 
M586.074585,451.631500 
	C583.913086,449.150330 580.697388,447.165161 578.759949,450.415771 
	C577.168701,453.085693 577.167297,457.379059 577.963623,460.578949 
	C578.582764,463.067078 585.489380,462.324371 588.142334,459.946350 
	C587.583740,457.280701 587.059082,454.776825 586.074585,451.631500 
z"/>
<path fill="#E6A676" opacity="1.000000" stroke="none" 
	d="
M579.753418,547.062012 
	C579.805908,547.260315 579.608765,547.548462 579.153320,547.922424 
	C579.098022,547.722778 579.300903,547.437317 579.753418,547.062012 
z"/>
<path fill="#FEFEFE" opacity="1.000000" stroke="none" 
	d="
M293.526306,44.319054 
	C317.942078,49.158714 337.249969,61.496796 352.279236,80.609619 
	C354.864014,83.896713 357.512939,84.418602 361.381897,83.411842 
	C386.509918,76.873116 411.038025,78.986084 433.930145,91.159943 
	C459.765320,104.898926 476.589111,125.892853 479.790710,155.846313 
	C480.772888,165.035446 481.039825,174.530014 477.283905,183.413528 
	C475.965820,186.531036 476.843506,188.452194 479.116669,190.758881 
	C489.463165,201.257919 498.487885,212.743347 503.112762,227.011765 
	C508.695282,244.234604 506.524445,261.072723 500.187592,277.676483 
	C491.740479,299.809662 474.658112,310.805145 452.298370,314.978760 
	C448.924347,315.608551 447.786438,317.470551 448.047119,320.540527 
	C449.651398,339.434418 441.274933,354.109344 428.010712,366.335510 
	C417.452820,376.067169 404.864197,381.006775 390.225586,379.035309 
	C384.585846,378.275787 380.844757,378.745728 377.079468,384.705566 
	C370.592377,394.973572 359.810059,400.740814 348.081940,403.747711 
	C321.986053,410.438202 297.051331,407.906158 273.808319,393.398193 
	C272.529846,392.600220 270.134705,392.219696 268.938629,392.878387 
	C259.411774,398.124817 249.166428,400.203308 238.444321,401.123901 
	C217.288406,402.940369 196.928192,400.323608 178.202667,389.984680 
	C159.499390,379.657990 144.768692,365.247620 137.535461,344.636841 
	C135.607605,339.143494 135.556595,332.931427 135.082581,327.014160 
	C134.856583,324.193237 134.246780,322.691467 131.340652,321.535919 
	C118.119064,316.278748 105.765541,309.279907 95.435654,299.478821 
	C83.511551,288.165131 76.570648,273.871185 74.094284,257.636505 
	C72.153046,244.910065 72.244431,232.211075 75.850571,219.637283 
	C79.845688,205.707230 88.083305,194.719666 98.639542,185.201599 
	C98.760155,185.092865 98.938705,185.051056 99.071304,184.952576 
	C107.149780,178.951736 106.909454,179.016220 104.216156,169.027145 
	C98.207314,146.741104 103.014847,126.643044 117.001083,108.498131 
	C130.057892,91.559006 147.059647,80.770988 168.093567,77.363091 
	C179.436417,75.525330 191.023392,76.801605 202.125626,80.251167 
	C205.687363,81.357841 207.800308,80.857147 210.047974,77.626930 
	C221.610229,61.010410 237.092499,49.877121 257.045593,45.525574 
	C268.956635,42.927914 280.990387,41.975338 293.526306,44.319054 
M288.957458,177.032654 
	C289.023224,158.730072 289.088959,140.427475 290.032928,122.096558 
	C332.896759,122.293365 375.760590,122.490173 418.673920,122.687202 
	C418.833527,124.850266 418.969177,125.832390 418.969391,126.814545 
	C418.983185,190.122620 418.949738,253.430756 419.069122,316.738617 
	C419.077332,321.095856 417.377930,322.031158 413.447510,322.011169 
	C388.791290,321.885559 364.134155,321.946259 339.477295,321.959564 
	C337.983856,321.960388 336.431763,321.862671 335.020813,322.238403 
	C334.267029,322.439087 333.188171,323.630249 333.269165,324.239746 
	C333.392578,325.168488 334.221985,326.333191 335.069672,326.748688 
	C336.032227,327.220490 337.345001,327.036530 338.505585,327.037018 
	C364.828430,327.048309 391.151520,326.983368 417.473816,327.104309 
	C422.120850,327.125671 424.066223,325.525330 424.060059,320.711578 
	C423.975586,255.071152 423.963409,189.430527 424.091888,123.790260 
	C424.101166,119.050636 422.410400,117.880379 417.944916,117.895027 
	C374.629456,118.037224 331.313324,117.993866 287.211395,117.887245 
	C286.162598,117.963821 285.113800,118.040405 283.122986,118.032326 
	C240.415787,118.033791 197.708603,118.035263 154.156845,117.992157 
	C149.696472,117.393700 148.956696,119.850128 148.961014,123.665413 
	C149.035248,189.202927 149.013138,254.740555 149.023560,320.278168 
	C149.024536,326.390259 149.688736,326.989746 156.961197,327.006714 
	C182.293488,326.990143 207.625793,326.973572 233.835693,327.021149 
	C234.668015,327.028534 235.612213,327.292023 236.308411,326.987854 
	C237.600861,326.423187 238.748535,325.527161 239.956482,324.769073 
	C238.818512,323.838501 237.798096,322.648102 236.503983,322.062683 
	C235.534119,321.623901 234.211945,321.958221 233.046631,321.958008 
	C209.072998,321.953461 185.099380,321.950226 161.125748,321.946869 
	C154.027939,321.945892 154.021164,321.946014 154.020447,314.806946 
	C154.014008,250.877289 154.010132,186.947647 154.940247,122.956001 
	C197.666763,122.957352 240.393265,122.958702 283.105713,123.855156 
	C283.354095,139.589905 283.602478,155.324646 283.824249,171.985474 
	C283.950439,189.637405 284.076660,207.289352 284.067413,225.756607 
	C282.710663,226.824036 281.468750,228.559586 279.972687,228.816742 
	C277.056915,229.317932 273.998627,228.975327 270.999695,229.010773 
	C263.655762,229.097610 260.673340,231.568024 260.036987,239.004868 
	C259.161285,249.239334 258.814575,259.518738 257.968750,269.756378 
	C257.766144,272.208923 256.896942,274.820679 255.620361,276.926361 
	C252.837753,281.516205 251.935211,286.083466 254.039658,291.135040 
	C254.474884,292.179718 254.905945,293.371979 254.829849,294.460632 
	C254.238113,302.926514 256.371613,311.068420 261.526947,317.294281 
	C266.596405,323.416504 267.558594,329.664978 267.056396,336.874115 
	C266.859985,339.693298 267.093414,342.539734 266.994324,345.368958 
	C266.864166,349.084442 268.081604,349.885864 272.082214,349.611877 
	C281.772919,348.948212 291.552216,348.882935 301.255341,349.374939 
	C306.494385,349.640594 306.917114,350.028717 306.942719,344.568024 
	C306.970062,338.736389 306.828522,332.901367 307.000305,327.074890 
	C307.043915,325.596130 307.810730,324.038574 308.568176,322.699951 
	C310.751617,318.841187 313.851135,315.323822 315.208160,311.215637 
	C317.265533,304.987335 317.586304,298.177856 319.714294,291.982635 
	C321.591827,286.516663 320.999908,282.086212 318.048126,277.369965 
	C316.811310,275.393860 316.144409,272.796509 316.015656,270.438049 
	C315.499817,260.989044 315.648132,251.493912 314.870392,242.072021 
	C314.206818,234.033447 312.401978,228.124146 300.764282,228.969452 
	C298.113647,229.162003 295.374390,229.293060 292.792908,228.817444 
	C291.383270,228.557724 290.218781,226.967438 288.913330,225.246384 
	C288.735718,223.818649 288.393372,222.389450 288.406006,220.963409 
	C288.533295,206.629593 288.718750,192.296295 288.957458,177.032654 
M374.420807,211.546524 
	C376.178497,212.297348 377.936188,213.048172 379.693878,213.798996 
	C380.121277,212.023697 381.225098,210.095520 380.864166,208.498337 
	C378.811737,199.415833 376.848846,190.264771 373.891144,181.461014 
	C372.837280,178.324097 369.488831,174.624527 366.467010,173.789169 
	C361.717346,172.476166 356.159882,172.521683 351.327332,173.642639 
	C348.294739,174.346085 344.525726,177.603912 343.579681,180.523407 
	C340.460205,190.149719 338.384705,200.123550 336.179810,210.024399 
	C335.926849,211.160110 337.385071,212.676895 338.049896,214.016998 
	C339.492981,213.227524 341.227966,212.710846 342.294525,211.569550 
	C343.300629,210.492935 343.603241,208.758911 344.215302,207.314072 
	C344.637268,207.431564 345.059235,207.549057 345.481201,207.666550 
	C344.194092,213.302170 342.906982,218.937775 341.591400,224.697937 
	C344.292328,225.102249 346.377411,225.414383 349.295624,225.851227 
	C349.295624,233.684494 349.277588,241.316086 349.304779,248.947525 
	C349.315186,251.876877 349.435547,255.166275 353.426605,254.975174 
	C357.009979,254.803589 357.700500,251.838058 357.674591,248.753738 
	C357.620087,242.260666 357.534332,235.767136 357.578400,229.274597 
	C357.586273,228.109573 358.155823,226.948334 358.466064,225.785355 
	C359.007782,225.866074 359.549469,225.946793 360.091187,226.027512 
	C360.091187,233.620178 360.097351,241.212860 360.088318,248.805527 
	C360.084442,252.088196 360.783325,255.126160 364.766541,255.090958 
	C368.731110,255.055923 368.750793,251.895386 368.737030,248.921432 
	C368.701691,241.291275 368.725220,233.660828 368.725220,225.950287 
	C371.426483,225.471359 373.497498,225.104187 375.725098,224.709244 
	C375.020691,222.229645 374.344452,220.026459 373.775269,217.795959 
	C373.200714,215.544434 372.732361,213.265823 372.828278,210.980835 
	C373.234924,210.961060 373.641541,210.941269 374.420807,211.546524 
M208.510620,168.971024 
	C205.683105,169.038513 202.820282,168.849197 200.036072,169.231750 
	C195.496490,169.855515 191.423874,171.722763 190.622879,176.769211 
	C189.059357,186.619629 187.774094,196.520447 186.713318,206.436737 
	C186.578064,207.701050 188.432022,210.268326 189.441315,210.308655 
	C190.943710,210.368713 192.859009,209.001953 193.944901,207.697998 
	C194.779053,206.696350 194.659988,204.862961 194.868835,203.385864 
	C195.415833,199.517151 195.910294,195.641006 196.425705,191.767822 
	C197.411697,194.167679 197.386108,196.465988 197.415817,198.763565 
	C197.618073,214.404556 197.858307,230.045120 198.021805,245.686508 
	C198.058243,249.173691 198.834076,252.475586 202.808411,252.584488 
	C206.985840,252.698959 208.195160,249.541687 208.162125,245.719254 
	C208.088745,237.230743 208.125015,228.741013 208.170578,220.252060 
	C208.177612,218.939560 208.470413,217.628586 208.631073,216.316910 
	C209.879807,217.933334 210.026505,219.481018 210.031311,221.029129 
	C210.057190,229.351807 210.074310,237.674698 210.038116,245.997253 
	C210.022568,249.570648 211.129898,252.689240 215.088455,252.623734 
	C219.033875,252.558456 219.938675,249.373230 219.984848,245.838333 
	C220.199966,229.365616 220.505234,212.894073 220.771439,196.421997 
	C220.796844,194.850052 220.774811,193.277328 220.774811,191.704971 
	C222.459366,196.358368 223.193283,201.068298 223.760818,205.798203 
	C224.126114,208.842560 225.415558,211.477661 228.641266,210.340805 
	C230.095581,209.828217 231.535461,206.474533 231.343536,204.575455 
	C230.508743,196.314758 229.085052,188.112885 227.848160,179.893738 
	C226.709290,172.325867 223.243057,169.271454 215.474319,168.994705 
	C213.479401,168.923630 211.479980,168.978607 208.510620,168.971024 
M202.263916,153.763428 
	C199.671890,157.650574 200.090591,161.328751 203.235367,164.644058 
	C205.994141,167.552414 209.407516,167.938782 212.820068,166.106918 
	C216.497055,164.133102 217.613251,160.726837 216.887589,156.735367 
	C215.925247,151.441925 208.437469,147.455124 202.263916,153.763428 
M355.590729,170.196274 
	C356.385651,170.419510 357.173706,170.805038 357.976624,170.838943 
	C362.272491,171.020294 365.008209,168.780533 365.975525,164.792252 
	C366.884338,161.045059 365.605988,157.779312 362.087494,155.893967 
	C358.617859,154.034760 355.187988,154.482224 352.553162,157.463928 
	C349.753723,160.631943 349.968445,164.173462 352.336609,167.542374 
	C352.984558,168.464203 354.035461,169.102783 355.590729,170.196274 
M257.095886,198.614838 
	C257.533997,199.569595 257.926086,201.326141 258.417389,201.354309 
	C263.017517,201.618256 267.636749,201.665573 272.244263,201.542847 
	C272.844635,201.526855 274.010620,200.018250 273.861237,199.511475 
	C273.585785,198.576981 272.519196,197.176041 271.798645,197.185730 
	C267.067352,197.249390 262.340485,197.638214 257.095886,198.614838 
M404.143311,201.655212 
	C404.808807,201.643829 405.575470,201.841583 406.119232,201.578522 
	C407.339783,200.988037 408.449615,200.168686 409.604523,199.442505 
	C408.348389,198.636200 407.145660,197.259460 405.825592,197.135895 
	C402.529694,196.827301 399.170776,196.957611 395.859009,197.204712 
	C394.940918,197.273193 394.099335,198.366867 393.222687,198.990204 
	C394.076599,199.804550 394.840759,201.168457 395.802063,201.325470 
	C398.241760,201.723984 400.769806,201.581696 404.143311,201.655212 
z"/>
<path fill="#EAAE7E" opacity="1.000000" stroke="none" 
	d="
M624.303284,985.371460 
	C624.284119,982.360962 625.198059,979.474915 624.674561,976.878601 
	C622.799561,967.578735 624.706726,958.805054 627.518738,950.077820 
	C627.819824,949.143372 628.188293,947.896362 628.910645,947.505127 
	C630.199463,946.806885 631.782349,946.651489 633.242310,946.269165 
	C633.528259,947.529175 634.259338,948.879211 634.025940,950.034241 
	C632.790100,956.149414 630.391907,962.183899 630.180176,968.307983 
	C629.974854,974.246216 631.929504,980.259033 632.995483,986.616211 
	C630.229187,986.538452 627.403076,986.083557 624.303284,985.371460 
z"/>
<path fill="#FEFEFE" opacity="1.000000" stroke="none" 
	d="
M469.040649,399.009766 
	C461.564941,398.235168 457.618835,394.789734 456.218933,388.181152 
	C455.087311,382.839050 458.806030,375.702301 464.361847,372.346893 
	C470.400909,368.699707 476.154083,370.070709 481.655731,373.428558 
	C486.271118,376.245422 487.701813,380.653198 486.990143,385.880768 
	C486.155212,392.013824 478.173157,398.003418 469.040649,399.009766 
z"/>
<path fill="#FEFEFE" opacity="1.000000" stroke="none" 
	d="
M499.960327,405.117249 
	C502.563782,403.504639 504.867401,401.583527 507.438019,401.109131 
	C512.453857,400.183594 517.748291,403.524414 519.422363,407.994720 
	C521.268127,412.923370 518.179871,415.910034 514.801086,418.430267 
	C510.295044,421.791382 504.919647,421.804657 501.452759,418.892975 
	C497.441681,415.524231 496.928467,411.401001 499.960327,405.117249 
z"/>
<path fill="#CE5B18" opacity="1.000000" stroke="none" 
	d="
M678.950500,888.276733 
	C680.743774,886.714233 682.580750,885.528870 684.691895,884.158936 
	C698.511108,878.977417 711.909607,873.527954 725.633972,869.085083 
	C748.665527,861.629333 771.987427,855.182434 796.238525,852.931152 
	C799.036133,852.671448 801.857483,851.940613 804.606201,852.168945 
	C806.115295,852.294373 807.495850,853.967773 808.934326,854.943237 
	C807.533997,856.286926 806.296570,858.524597 804.704407,858.814453 
	C798.861450,859.878235 792.817749,859.878845 787.000610,861.037720 
	C773.043457,863.818481 758.877502,866.081116 745.334534,870.287292 
	C724.911133,876.630371 704.908752,884.348389 684.821594,891.738037 
	C681.092041,893.110168 679.517700,892.377075 678.950500,888.276733 
z"/>
<path fill="#CE5B18" opacity="1.000000" stroke="none" 
	d="
M759.651367,792.462585 
	C760.201538,805.194397 760.573303,817.480591 761.023315,829.763794 
	C761.272217,836.558228 761.923157,843.352844 761.800842,850.136658 
	C761.766052,852.065186 759.652039,853.956177 758.491455,855.864380 
	C757.325439,853.961060 755.238770,852.105591 755.137207,850.147034 
	C754.217163,832.412842 753.926819,814.644104 752.882874,796.919006 
	C751.997803,781.891602 750.258118,766.916199 749.139160,751.899719 
	C748.914734,748.888367 747.395203,744.037415 751.999634,743.672791 
	C755.652405,743.383545 755.830261,747.627136 756.074097,750.947388 
	C757.080078,764.646973 758.339417,778.327881 759.651367,792.462585 
z"/>
<path fill="#EAAE7E" opacity="1.000000" stroke="none" 
	d="
M639.841064,502.829895 
	C638.515625,503.759705 637.054810,505.018982 636.051819,504.723663 
	C630.359863,503.047485 624.597168,501.397614 619.211304,498.959595 
	C614.401367,496.782227 612.577942,492.418579 614.760376,487.775696 
	C619.052124,478.645386 623.924194,469.775574 628.905579,460.996277 
	C629.564575,459.834717 632.267944,459.833130 634.024414,459.294312 
	C634.054810,461.107513 634.745056,463.268158 634.004211,464.675262 
	C630.300110,471.710449 626.054016,478.459473 622.323364,485.481781 
	C619.047363,491.648346 620.061829,493.867645 626.718872,496.019775 
	C629.537781,496.931091 632.652588,497.052368 635.334167,498.219330 
	C637.133484,499.002441 638.407837,500.991821 639.841064,502.829895 
z"/>
<path fill="#EAAE7E" opacity="1.000000" stroke="none" 
	d="
M683.788208,557.778625 
	C685.276794,556.409363 686.341492,554.757996 687.779236,554.313599 
	C689.352234,553.827393 691.269958,554.456482 693.037476,554.599548 
	C692.748230,556.183777 693.009949,558.286865 692.083313,559.270874 
	C684.114990,567.732483 674.127380,572.898743 663.038879,575.921631 
	C659.069397,577.003723 654.908447,577.609131 650.801453,577.841797 
	C649.306946,577.926453 647.715210,576.294189 646.167847,575.445312 
	C647.564209,574.016418 648.729553,571.837463 650.406921,571.320862 
	C653.519165,570.362183 657.268982,571.129944 660.152283,569.837769 
	C668.110413,566.271545 675.758240,562.013123 683.788208,557.778625 
z"/>
<path fill="#FCC798" opacity="1.000000" stroke="none" 
	d="
M690.107483,471.976562 
	C693.182007,472.420959 696.867981,470.490601 697.693726,475.188751 
	C695.725281,477.559204 690.849182,478.101135 692.656982,483.004974 
	C692.738037,483.225067 690.441284,484.938782 689.295349,484.892242 
	C682.730957,484.625397 676.388123,483.569183 672.328979,477.487762 
	C675.237732,471.783539 678.501648,470.161896 685.291382,471.090302 
	C686.760315,471.291199 688.204468,471.673615 690.107483,471.976562 
z"/>
<path fill="#EAAE7E" opacity="1.000000" stroke="none" 
	d="
M639.742798,525.990479 
	C641.619873,527.518738 643.093872,528.996338 644.567871,530.473999 
	C642.443359,531.157715 640.156921,532.725769 638.222534,532.371460 
	C629.969910,530.859985 621.767944,528.976074 613.672913,526.768372 
	C611.688904,526.227295 608.502930,523.507507 608.755432,522.551636 
	C609.610168,519.315674 612.617065,519.645935 615.340393,520.639038 
	C615.496399,520.695923 615.669495,520.721497 615.809387,520.804382 
	C623.086365,525.114746 631.246277,525.374695 639.742798,525.990479 
z"/>
<path fill="#353433" opacity="1.000000" stroke="none" 
	d="
M662.312256,465.561646 
	C662.104431,461.274994 663.569519,457.898499 667.406250,457.070679 
	C669.792603,456.555847 673.508423,457.104797 674.960754,458.696838 
	C676.635437,460.532654 677.640930,464.487976 676.794312,466.704285 
	C675.888916,469.074463 672.702454,471.553558 670.123169,472.079376 
	C666.033569,472.913025 663.412659,469.972137 662.312256,465.561646 
z"/>
<path fill="#EAAE7E" opacity="1.000000" stroke="none" 
	d="
M755.615356,474.446533 
	C754.800842,476.151825 753.857544,477.513000 752.914185,478.874207 
	C751.821594,478.044464 750.456665,477.412628 749.684204,476.350098 
	C746.624817,472.141998 742.610168,471.045746 737.876709,472.594147 
	C735.389099,473.407898 733.148071,474.981720 730.656311,475.773926 
	C728.737244,476.384003 726.600708,476.310150 724.560913,476.540466 
	C725.424072,474.820557 725.870667,472.616455 727.217041,471.458252 
	C736.957520,463.079102 749.811340,464.375092 755.615356,474.446533 
z"/>
<path fill="#353433" opacity="1.000000" stroke="none" 
	d="
M606.457886,450.823792 
	C606.683044,451.680908 606.848755,452.171326 606.848511,452.661682 
	C606.845642,457.655731 604.197632,461.309631 600.012878,461.598206 
	C596.161560,461.863800 593.128784,460.307037 591.996094,456.335175 
	C590.865479,452.371002 593.023193,447.366791 596.508118,446.279602 
	C600.801636,444.940155 604.439453,445.806366 606.457886,450.823792 
z"/>
<path fill="#FCC798" opacity="1.000000" stroke="none" 
	d="
M586.304504,451.952209 
	C587.059082,454.776825 587.583740,457.280701 588.142334,459.946350 
	C585.489380,462.324371 578.582764,463.067078 577.963623,460.578949 
	C577.167297,457.379059 577.168701,453.085693 578.759949,450.415771 
	C580.697388,447.165161 583.913086,449.150330 586.304504,451.952209 
z"/>
<path fill="#5894DA" opacity="1.000000" stroke="none" 
	d="
M208.996628,168.973358 
	C211.479980,168.978607 213.479401,168.923630 215.474319,168.994705 
	C223.243057,169.271454 226.709290,172.325867 227.848160,179.893738 
	C229.085052,188.112885 230.508743,196.314758 231.343536,204.575455 
	C231.535461,206.474533 230.095581,209.828217 228.641266,210.340805 
	C225.415558,211.477661 224.126114,208.842560 223.760818,205.798203 
	C223.193283,201.068298 222.459366,196.358368 220.774811,191.704971 
	C220.774811,193.277328 220.796844,194.850052 220.771439,196.421997 
	C220.505234,212.894073 220.199966,229.365616 219.984848,245.838333 
	C219.938675,249.373230 219.033875,252.558456 215.088455,252.623734 
	C211.129898,252.689240 210.022568,249.570648 210.038116,245.997253 
	C210.074310,237.674698 210.057190,229.351807 210.031311,221.029129 
	C210.026505,219.481018 209.879807,217.933334 208.631073,216.316910 
	C208.470413,217.628586 208.177612,218.939560 208.170578,220.252060 
	C208.125015,228.741013 208.088745,237.230743 208.162125,245.719254 
	C208.195160,249.541687 206.985840,252.698959 202.808411,252.584488 
	C198.834076,252.475586 198.058243,249.173691 198.021805,245.686508 
	C197.858307,230.045120 197.618073,214.404556 197.415817,198.763565 
	C197.386108,196.465988 197.411697,194.167679 196.425705,191.767822 
	C195.910294,195.641006 195.415833,199.517151 194.868835,203.385864 
	C194.659988,204.862961 194.779053,206.696350 193.944901,207.697998 
	C192.859009,209.001953 190.943710,210.368713 189.441315,210.308655 
	C188.432022,210.268326 186.578064,207.701050 186.713318,206.436737 
	C187.774094,196.520447 189.059357,186.619629 190.622879,176.769211 
	C191.423874,171.722763 195.496490,169.855515 200.036072,169.231750 
	C202.820282,168.849197 205.683105,169.038513 208.996628,168.973358 
M197.433167,187.562683 
	C197.341263,188.146393 197.249374,188.730103 197.157471,189.313812 
	C197.292816,189.327576 197.428146,189.341324 197.563492,189.355087 
	C197.615616,188.909012 197.667725,188.462921 197.433167,187.562683 
z"/>
<path fill="#85B130" opacity="1.000000" stroke="none" 
	d="
M372.217468,210.999069 
	C372.732361,213.265823 373.200714,215.544434 373.775269,217.795959 
	C374.344452,220.026459 375.020691,222.229645 375.725098,224.709244 
	C373.497498,225.104187 371.426483,225.471359 368.725220,225.950287 
	C368.725220,233.660828 368.701691,241.291275 368.737030,248.921432 
	C368.750793,251.895386 368.731110,255.055923 364.766541,255.090958 
	C360.783325,255.126160 360.084442,252.088196 360.088318,248.805527 
	C360.097351,241.212860 360.091187,233.620178 360.091187,226.027512 
	C359.549469,225.946793 359.007782,225.866074 358.466064,225.785355 
	C358.155823,226.948334 357.586273,228.109573 357.578400,229.274597 
	C357.534332,235.767136 357.620087,242.260666 357.674591,248.753738 
	C357.700500,251.838058 357.009979,254.803589 353.426605,254.975174 
	C349.435547,255.166275 349.315186,251.876877 349.304779,248.947525 
	C349.277588,241.316086 349.295624,233.684494 349.295624,225.851227 
	C346.377411,225.414383 344.292328,225.102249 341.591400,224.697937 
	C342.906982,218.937775 344.194092,213.302170 345.481201,207.666550 
	C345.059235,207.549057 344.637268,207.431564 344.215302,207.314072 
	C343.603241,208.758911 343.300629,210.492935 342.294525,211.569550 
	C341.227966,212.710846 339.492981,213.227524 338.049896,214.016998 
	C337.385071,212.676895 335.926849,211.160110 336.179810,210.024399 
	C338.384705,200.123550 340.460205,190.149719 343.579681,180.523407 
	C344.525726,177.603912 348.294739,174.346085 351.327332,173.642639 
	C356.159882,172.521683 361.717346,172.476166 366.467010,173.789169 
	C369.488831,174.624527 372.837280,178.324097 373.891144,181.461014 
	C376.848846,190.264771 378.811737,199.415833 380.864166,208.498337 
	C381.225098,210.095520 380.121277,212.023697 379.693878,213.798996 
	C377.936188,213.048172 376.178497,212.297348 374.239929,210.839844 
	C372.779602,205.542465 371.500122,200.951752 370.220642,196.361038 
	C369.705627,196.507339 369.190613,196.653641 368.675598,196.799942 
	C369.856232,201.532974 371.036865,206.266022 372.217468,210.999069 
z"/>
<path fill="#C8CFDA" opacity="1.000000" stroke="none" 
	d="
M288.943756,225.977203 
	C290.218781,226.967438 291.383270,228.557724 292.792908,228.817444 
	C295.374390,229.293060 298.113647,229.162003 300.764282,228.969452 
	C312.401978,228.124146 314.206818,234.033447 314.870392,242.072021 
	C315.648132,251.493912 315.499817,260.989044 316.015656,270.438049 
	C316.144409,272.796509 316.811310,275.393860 318.048126,277.369965 
	C320.999908,282.086212 321.591827,286.516663 319.714294,291.982635 
	C317.586304,298.177856 317.265533,304.987335 315.208160,311.215637 
	C313.851135,315.323822 310.751617,318.841187 308.568176,322.699951 
	C307.810730,324.038574 307.043915,325.596130 307.000305,327.074890 
	C306.828522,332.901367 306.970062,338.736389 306.942719,344.568024 
	C306.917114,350.028717 306.494385,349.640594 301.255341,349.374939 
	C291.552216,348.882935 281.772919,348.948212 272.082214,349.611877 
	C268.081604,349.885864 266.864166,349.084442 266.994324,345.368958 
	C267.093414,342.539734 266.859985,339.693298 267.056396,336.874115 
	C267.558594,329.664978 266.596405,323.416504 261.526947,317.294281 
	C256.371613,311.068420 254.238113,302.926514 254.829849,294.460632 
	C254.905945,293.371979 254.474884,292.179718 254.039658,291.135040 
	C251.935211,286.083466 252.837753,281.516205 255.620361,276.926361 
	C256.896942,274.820679 257.766144,272.208923 257.968750,269.756378 
	C258.814575,259.518738 259.161285,249.239334 260.036987,239.004868 
	C260.673340,231.568024 263.655762,229.097610 270.999695,229.010773 
	C273.998627,228.975327 277.056915,229.317932 279.972687,228.816742 
	C281.468750,228.559586 282.710663,226.824036 284.479797,225.371277 
	C286.242706,225.316360 287.593231,225.646790 288.943756,225.977203 
M282.506775,271.003784 
	C291.869049,271.003784 301.231323,271.003784 311.501282,271.003784 
	C310.975494,261.177612 310.833466,251.228226 309.787140,241.374863 
	C309.008911,234.046478 307.451691,233.143188 300.108856,233.070923 
	C290.621552,232.977539 281.131317,233.125122 271.645508,232.972885 
	C267.615814,232.908218 265.323456,234.574066 264.717773,238.507553 
	C264.215302,241.770569 263.510040,245.041733 263.429565,248.322433 
	C263.239594,256.063232 263.368591,263.811859 263.368591,271.006683 
	C269.651855,271.006683 275.581421,271.006683 282.506775,271.003784 
M311.845825,308.173157 
	C312.923462,303.708252 314.001099,299.243378 315.189117,294.321045 
	C296.183350,294.321045 277.824158,294.321045 259.502014,294.321045 
	C257.766388,310.673187 269.851929,324.926361 285.720215,324.856628 
	C298.199493,324.801819 308.401001,320.512787 311.845825,308.173157 
M306.979828,276.030243 
	C295.014496,276.045471 283.048737,276.009766 271.084229,276.117981 
	C268.624329,276.140228 265.600311,275.917175 263.843750,277.193604 
	C261.130585,279.165131 259.106445,282.217529 257.262665,285.112488 
	C256.979980,285.556335 259.212402,288.738770 260.307495,288.753693 
	C278.085968,288.995667 295.868652,288.942719 313.650330,288.921112 
	C316.180481,288.918030 317.306763,287.764282 316.552399,285.088684 
	C315.256897,280.493866 313.113678,276.791931 306.979828,276.030243 
M278.471893,328.074615 
	C276.540314,327.794281 274.608704,327.513916 272.302917,327.179260 
	C272.302917,332.823700 272.302917,338.182953 272.302917,343.487518 
	C282.319855,343.487518 291.946777,343.487518 301.694550,343.487518 
	C301.694550,337.980255 301.694550,332.740143 301.694550,328.242828 
	C294.008392,328.242828 286.670441,328.242828 278.471893,328.074615 
z"/>
<path fill="#C7CED9" opacity="1.000000" stroke="none" 
	d="
M287.997406,118.003448 
	C331.313324,117.993866 374.629456,118.037224 417.944916,117.895027 
	C422.410400,117.880379 424.101166,119.050636 424.091888,123.790260 
	C423.963409,189.430527 423.975586,255.071152 424.060059,320.711578 
	C424.066223,325.525330 422.120850,327.125671 417.473816,327.104309 
	C391.151520,326.983368 364.828430,327.048309 338.505585,327.037018 
	C337.345001,327.036530 336.032227,327.220490 335.069672,326.748688 
	C334.221985,326.333191 333.392578,325.168488 333.269165,324.239746 
	C333.188171,323.630249 334.267029,322.439087 335.020813,322.238403 
	C336.431763,321.862671 337.983856,321.960388 339.477295,321.959564 
	C364.134155,321.946259 388.791290,321.885559 413.447510,322.011169 
	C417.377930,322.031158 419.077332,321.095856 419.069122,316.738617 
	C418.949738,253.430756 418.983185,190.122620 418.969391,126.814545 
	C418.969177,125.832390 418.833527,124.850266 418.673920,122.687202 
	C375.760590,122.490173 332.896759,122.293365 289.424316,121.783943 
	C288.542938,120.315369 288.270172,119.159409 287.997406,118.003448 
z"/>
<path fill="#C8CFDA" opacity="1.000000" stroke="none" 
	d="
M156.030869,326.966980 
	C149.688736,326.989746 149.024536,326.390259 149.023560,320.278168 
	C149.013138,254.740555 149.035248,189.202927 148.961014,123.665413 
	C148.956696,119.850128 149.696472,117.393700 154.573868,118.380447 
	C154.662430,120.185150 154.333954,121.601578 154.005493,123.017998 
	C154.010132,186.947647 154.014008,250.877289 154.020447,314.806946 
	C154.021164,321.946014 154.027939,321.945892 161.125748,321.946869 
	C185.099380,321.950226 209.072998,321.953461 233.046631,321.958008 
	C234.211945,321.958221 235.534119,321.623901 236.503983,322.062683 
	C237.798096,322.648102 238.818512,323.838501 239.956482,324.769073 
	C238.748535,325.527161 237.600861,326.423187 236.308411,326.987854 
	C235.612213,327.292023 234.668015,327.028534 233.104340,326.699677 
	C231.728378,326.255127 231.083862,326.025085 230.439148,326.024506 
	C206.864304,326.003082 183.289398,325.988403 159.714661,326.041077 
	C158.486038,326.043793 157.258774,326.644592 156.030869,326.966980 
z"/>
<path fill="#C7CED9" opacity="1.000000" stroke="none" 
	d="
M154.472870,122.987000 
	C154.333954,121.601578 154.662430,120.185150 154.996155,118.402725 
	C197.708603,118.035263 240.415787,118.033791 283.569641,118.442078 
	C283.717468,120.221230 283.418640,121.590645 283.119812,122.960052 
	C240.393265,122.958702 197.666763,122.957352 154.472870,122.987000 
z"/>
<path fill="#ADB3BB" opacity="1.000000" stroke="none" 
	d="
M283.112762,123.407608 
	C283.418640,121.590645 283.717468,120.221230 284.040649,118.484406 
	C285.113800,118.040405 286.162598,117.963821 287.604401,117.945343 
	C288.270172,119.159409 288.542938,120.315369 288.985168,121.798111 
	C289.088959,140.427475 289.023224,158.730072 288.553040,177.420883 
	C287.760223,176.376953 287.644897,174.777588 286.901184,173.563065 
	C286.252197,172.503296 284.895111,171.877136 283.850891,171.059387 
	C283.602478,155.324646 283.354095,139.589905 283.112762,123.407608 
z"/>
<path fill="#BBC1CA" opacity="1.000000" stroke="none" 
	d="
M283.837585,171.522430 
	C284.895111,171.877136 286.252197,172.503296 286.901184,173.563065 
	C287.644897,174.777588 287.760223,176.376953 288.518250,177.885986 
	C288.718750,192.296295 288.533295,206.629593 288.406006,220.963409 
	C288.393372,222.389450 288.735718,223.818649 288.928528,225.611786 
	C287.593231,225.646790 286.242706,225.316360 284.547516,224.963608 
	C284.076660,207.289352 283.950439,189.637405 283.837585,171.522430 
z"/>
<path fill="#5894DA" opacity="1.000000" stroke="none" 
	d="
M202.501801,153.484863 
	C208.437469,147.455124 215.925247,151.441925 216.887589,156.735367 
	C217.613251,160.726837 216.497055,164.133102 212.820068,166.106918 
	C209.407516,167.938782 205.994141,167.552414 203.235367,164.644058 
	C200.090591,161.328751 199.671890,157.650574 202.501801,153.484863 
z"/>
<path fill="#85B130" opacity="1.000000" stroke="none" 
	d="
M355.246094,170.033813 
	C354.035461,169.102783 352.984558,168.464203 352.336609,167.542374 
	C349.968445,164.173462 349.753723,160.631943 352.553162,157.463928 
	C355.187988,154.482224 358.617859,154.034760 362.087494,155.893967 
	C365.605988,157.779312 366.884338,161.045059 365.975525,164.792252 
	C365.008209,168.780533 362.272491,171.020294 357.976624,170.838943 
	C357.173706,170.805038 356.385651,170.419510 355.246094,170.033813 
z"/>
<path fill="#ADB3BB" opacity="1.000000" stroke="none" 
	d="
M257.354004,198.267868 
	C262.340485,197.638214 267.067352,197.249390 271.798645,197.185730 
	C272.519196,197.176041 273.585785,198.576981 273.861237,199.511475 
	C274.010620,200.018250 272.844635,201.526855 272.244263,201.542847 
	C267.636749,201.665573 263.017517,201.618256 258.417389,201.354309 
	C257.926086,201.326141 257.533997,199.569595 257.354004,198.267868 
z"/>
<path fill="#939293" opacity="1.000000" stroke="none" 
	d="
M403.702881,201.655579 
	C400.769806,201.581696 398.241760,201.723984 395.802063,201.325470 
	C394.840759,201.168457 394.076599,199.804550 393.222687,198.990204 
	C394.099335,198.366867 394.940918,197.273193 395.859009,197.204712 
	C399.170776,196.957611 402.529694,196.827301 405.825592,197.135895 
	C407.145660,197.259460 408.348389,198.636200 409.604523,199.442505 
	C408.449615,200.168686 407.339783,200.988037 406.119232,201.578522 
	C405.575470,201.841583 404.808807,201.643829 403.702881,201.655579 
z"/>
<path fill="#BBC1CA" opacity="1.000000" stroke="none" 
	d="
M156.496033,326.986847 
	C157.258774,326.644592 158.486038,326.043793 159.714661,326.041077 
	C183.289398,325.988403 206.864304,326.003082 230.439148,326.024506 
	C231.083862,326.025085 231.728378,326.255127 232.665527,326.667603 
	C207.625793,326.973572 182.293488,326.990143 156.496033,326.986847 
z"/>
<path fill="#D0D7E2" opacity="1.000000" stroke="none" 
	d="
M372.522888,210.989960 
	C371.036865,206.266022 369.856232,201.532974 368.675598,196.799942 
	C369.190613,196.653641 369.705627,196.507339 370.220642,196.361038 
	C371.500122,200.951752 372.779602,205.542465 374.053650,210.527328 
	C373.641541,210.941269 373.234924,210.961060 372.522888,210.989960 
z"/>
<path fill="#FEFEFE" opacity="1.000000" stroke="none" 
	d="
M197.576508,187.789764 
	C197.667725,188.462921 197.615616,188.909012 197.563492,189.355087 
	C197.428146,189.341324 197.292816,189.327576 197.157471,189.313812 
	C197.249374,188.730103 197.341263,188.146393 197.576508,187.789764 
z"/>
<path fill="#FEFEFE" opacity="1.000000" stroke="none" 
	d="
M282.008881,271.005249 
	C275.581421,271.006683 269.651855,271.006683 263.368591,271.006683 
	C263.368591,263.811859 263.239594,256.063232 263.429565,248.322433 
	C263.510040,245.041733 264.215302,241.770569 264.717773,238.507553 
	C265.323456,234.574066 267.615814,232.908218 271.645508,232.972885 
	C281.131317,233.125122 290.621552,232.977539 300.108856,233.070923 
	C307.451691,233.143188 309.008911,234.046478 309.787140,241.374863 
	C310.833466,251.228226 310.975494,261.177612 311.501282,271.003784 
	C301.231323,271.003784 291.869049,271.003784 282.008881,271.005249 
z"/>
<path fill="#FEFEFE" opacity="1.000000" stroke="none" 
	d="
M311.699036,308.537292 
	C308.401001,320.512787 298.199493,324.801819 285.720215,324.856628 
	C269.851929,324.926361 257.766388,310.673187 259.502014,294.321045 
	C277.824158,294.321045 296.183350,294.321045 315.189117,294.321045 
	C314.001099,299.243378 312.923462,303.708252 311.699036,308.537292 
z"/>
<path fill="#FEFEFE" opacity="1.000000" stroke="none" 
	d="
M307.417603,276.036621 
	C313.113678,276.791931 315.256897,280.493866 316.552399,285.088684 
	C317.306763,287.764282 316.180481,288.918030 313.650330,288.921112 
	C295.868652,288.942719 278.085968,288.995667 260.307495,288.753693 
	C259.212402,288.738770 256.979980,285.556335 257.262665,285.112488 
	C259.106445,282.217529 261.130585,279.165131 263.843750,277.193604 
	C265.600311,275.917175 268.624329,276.140228 271.084229,276.117981 
	C283.048737,276.009766 295.014496,276.045471 307.417603,276.036621 
z"/>
<path fill="#FEFEFE" opacity="1.000000" stroke="none" 
	d="
M278.902191,328.158722 
	C286.670441,328.242828 294.008392,328.242828 301.694550,328.242828 
	C301.694550,332.740143 301.694550,337.980255 301.694550,343.487518 
	C291.946777,343.487518 282.319855,343.487518 272.302917,343.487518 
	C272.302917,338.182953 272.302917,332.823700 272.302917,327.179260 
	C274.608704,327.513916 276.540314,327.794281 278.902191,328.158722 
z"/>
</svg>